<?xml version="1.0" encoding="utf-8"?>
<!-- Generator: Adobe Illustrator 27.0.0, SVG Export Plug-In . SVG Version: 6.00 Build 0)  -->
<svg version="1.1" id="Layer_1" xmlns="http://www.w3.org/2000/svg" xmlns:xlink="http://www.w3.org/1999/xlink" x="0px" y="0px"
	 viewBox="0 0 26 26" style="enable-background:new 0 0 26 26;" xml:space="preserve">
<style type="text/css">
	.st0{fill:#FFFFFF;}
</style>
<g>
	<path class="st0" d="M17.1,13c-0.9,0-1.8,0-2.7,0c0,3.2,0,6.4,0,9.6c-1.4,0-2.7,0-4,0c0-3.2,0-6.4,0-9.6c-0.6,0-1.2,0-1.9,0
		c0-1.1,0-2.3,0-3.4c0.6,0,1.2,0,1.9,0c0-0.5,0-1,0-1.4c0-0.7,0-1.4,0.2-2c0.4-1.6,1.5-2.5,3.2-2.7c0.3,0,0.6,0,0.9,0
		c0.9,0,1.8,0,2.7,0c0,1.1,0,2.2,0,3.3c-0.6,0-1.3,0-1.9,0c-0.8,0-1.1,0.3-1.1,1c0,0.6,0,1.2,0,1.9c1,0,2,0,3,0
		C17.3,10.8,17.2,11.9,17.1,13z"/>
</g>
</svg>
