<?xml version="1.0" encoding="utf-8"?>
<!-- Generator: Adobe Illustrator 27.0.0, SVG Export Plug-In . SVG Version: 6.00 Build 0)  -->
<svg version="1.1" id="Layer_1" xmlns="http://www.w3.org/2000/svg" xmlns:xlink="http://www.w3.org/1999/xlink" x="0px" y="0px"
	 viewBox="0 0 26 26" style="enable-background:new 0 0 26 26;" xml:space="preserve">
<style type="text/css">
	.st0{fill:#FFFFFF;}
	.st1{fill:#E94435;}
	.st2{fill:#F8BB15;}
	.st3{fill:#547DBE;}
	.st4{fill:#34A751;}
</style>
<g id="XMLID_28_">
	<path id="XMLID_30_" class="st0" d="M9.55,2.9C6.82,3.84,4.49,5.89,3.2,8.47c-0.45,0.89-0.78,1.84-0.97,2.82
		c-0.5,2.44-0.15,5.03,0.97,7.26c0.73,1.45,1.78,2.74,3.05,3.75c1.2,0.96,2.6,1.66,4.08,2.05c1.87,0.5,3.86,0.49,5.74,0.06
		c1.7-0.39,3.31-1.21,4.59-2.39c1.36-1.25,2.32-2.89,2.84-4.66c0.56-1.93,0.63-3.98,0.28-5.96c-3.52,0-7.04,0-10.56,0
		c0,1.46,0,2.92,0,4.38c2.04,0,4.08,0,6.11,0c-0.24,1.4-1.07,2.68-2.25,3.47c-0.74,0.5-1.59,0.82-2.47,0.97
		c-0.89,0.15-1.8,0.17-2.68-0.01c-0.9-0.18-1.75-0.55-2.5-1.08c-1.19-0.84-2.11-2.07-2.57-3.44c-0.48-1.4-0.48-2.97,0-4.37
		c0.33-0.99,0.89-1.9,1.63-2.65c0.9-0.93,2.08-1.59,3.35-1.86c1.09-0.23,2.23-0.19,3.29,0.13c0.9,0.28,1.73,0.77,2.42,1.42
		c0.69-0.68,1.38-1.38,2.07-2.06c0.36-0.37,0.74-0.72,1.09-1.11c-1.04-0.97-2.27-1.75-3.61-2.24C14.7,2.08,11.98,2.06,9.55,2.9z"/>
	<path id="XMLID_31_" class="st1" d="M9.55,2.9c2.43-0.84,5.15-0.82,7.56,0.07c1.34,0.49,2.56,1.27,3.61,2.24
		C20.37,5.59,20,5.94,19.63,6.31C18.94,7,18.26,7.69,17.57,8.38c-0.68-0.65-1.51-1.15-2.42-1.42c-1.06-0.32-2.21-0.36-3.29-0.13
		C10.58,7.09,9.41,7.76,8.5,8.68c-0.74,0.74-1.29,1.66-1.63,2.65c-1.23-0.95-2.45-1.9-3.68-2.85C4.49,5.89,6.82,3.84,9.55,2.9z"/>
	<path id="XMLID_32_" class="st2" d="M2.22,11.29c0.19-0.98,0.53-1.93,0.97-2.82c1.23,0.95,2.45,1.9,3.68,2.85
		c-0.48,1.4-0.48,2.97,0,4.37c-1.23,0.95-2.45,1.9-3.68,2.85C2.07,16.33,1.72,13.73,2.22,11.29z"/>
	<path id="XMLID_33_" class="st3" d="M13.22,11.4c3.52,0,7.04,0,10.56,0c0.35,1.97,0.28,4.03-0.28,5.96
		c-0.52,1.77-1.48,3.41-2.84,4.66c-1.19-0.92-2.38-1.85-3.56-2.77c1.18-0.79,2.01-2.07,2.25-3.47c-2.04,0-4.08,0-6.11,0
		C13.22,14.33,13.22,12.87,13.22,11.4z"/>
	<path id="XMLID_34_" class="st4" d="M3.2,18.55c1.23-0.95,2.45-1.9,3.68-2.85c0.46,1.38,1.38,2.61,2.57,3.44
		c0.75,0.53,1.6,0.9,2.5,1.08c0.88,0.18,1.8,0.16,2.68,0.01s1.73-0.48,2.47-0.97c1.19,0.92,2.38,1.85,3.56,2.77
		c-1.28,1.19-2.89,2-4.59,2.39c-1.88,0.43-3.87,0.44-5.74-0.06c-1.48-0.4-2.88-1.1-4.08-2.05C4.97,21.28,3.92,19.99,3.2,18.55z"/>
</g>
</svg>
