<?xml version="1.0" encoding="utf-8"?>
<!-- Generator: Adobe Illustrator 27.0.0, SVG Export Plug-In . SVG Version: 6.00 Build 0)  -->
<svg version="1.1" id="Layer_1" xmlns="http://www.w3.org/2000/svg" xmlns:xlink="http://www.w3.org/1999/xlink" x="0px" y="0px"
	 viewBox="0 0 26 26" style="enable-background:new 0 0 26 26;" xml:space="preserve">
<style type="text/css">
	.st0{fill:#0000FF;}
</style>
<g>
	<path class="st0" d="M18.1,13.02c-1.13,0-2.2,0-3.32,0c0,3.98,0,7.93,0,11.92c-1.68,0-3.31,0-4.98,0c0-3.96,0-7.9,0-11.9
		c-0.79,0-1.54,0-2.32,0c0-1.43,0-2.81,0-4.23c0.76,0,1.5,0,2.31,0c0-0.63-0.03-1.22,0.01-1.8C9.83,6.17,9.82,5.3,10,4.49
		c0.44-1.96,1.9-3.16,3.96-3.4c0.38-0.04,0.76-0.03,1.14-0.03c1.1,0,2.21,0,3.35,0c0,1.37,0,2.69,0,4.08c-0.8,0-1.59,0-2.38,0
		c-0.96,0-1.32,0.35-1.33,1.3c0,0.76,0,1.52,0,2.34c1.26,0,2.47,0,3.78,0C18.38,10.23,18.24,11.61,18.1,13.02z"/>
</g>
</svg>
